<?xml version="1.0" encoding="UTF-8"?>
<svg viewBox="0 0 640 480" xmlns="http://www.w3.org/2000/svg" xmlns:xlink="http://www.w3.org/1999/xlink">
 <defs>
  <linearGradient id="r" x1=".95618" x2=".50547" y1="-.13872" y2="-.13872" gradientTransform="translate(-32.364 19.908)">
   <stop stop-color="#57534a" stop-opacity=".69" offset="0"/>
   <stop stop-color="#feca79" stop-opacity="0" offset="1"/>
  </linearGradient>
  <linearGradient id="m" x1="-1.0174" x2="-.65778" y1=".68525" y2=".68525" gradientTransform="translate(110.27 -1.7748)" xlink:href="#a"/>
  <linearGradient id="k" x1="1.8491" x2="2.0732" y1="2.0526" y2="2.0526" gradientTransform="translate(-185.5 -232.82)">
   <stop stop-color="#fff" stop-opacity="0" offset="0"/>
   <stop stop-color="#b1b1b1" stop-opacity=".196" offset=".35221"/>
   <stop stop-color="#8a8a8a" stop-opacity=".588" offset=".72929"/>
   <stop stop-color="#646464" offset="1"/>
  </linearGradient>
  <linearGradient id="n" x1="-1.3939" x2="-1.2059" y1=".67533" y2=".67533" gradientTransform="translate(141.35 .3681)" xlink:href="#a"/>
  <linearGradient id="p" x1=".39679" x2=".54246" y1=".59796" y2=".59796" gradientTransform="translate(6.9633 -43.674)">
   <stop stop-color="#c8c8c8" offset="0"/>
   <stop stop-color="#fff" offset=".5"/>
   <stop stop-color="#c8c8c8" offset="1"/>
  </linearGradient>
  <linearGradient id="q" x1=".47347" x2=".61321" y1=".54709" y2=".54709" gradientTransform="translate(6.9633 -43.674)">
   <stop stop-color="#fff" offset="0"/>
   <stop stop-color="#959595" offset="1"/>
  </linearGradient>
  <linearGradient id="o" x1=".79254" x2=".45092" y1=".66966" y2=".66966" gradientTransform="translate(-32.364 19.908)" xlink:href="#a"/>
  <linearGradient id="l" x1="1.8491" x2="1.6732" y1="2.0526" y2="2.0526" gradientTransform="translate(-185.5 -232.82)">
   <stop stop-color="#fff" stop-opacity="0" offset="0"/>
   <stop stop-color="#b1b1b1" stop-opacity=".196" offset=".35221"/>
   <stop stop-color="#8a8a8a" stop-opacity=".588" offset=".72929"/>
   <stop stop-color="#646464" offset="1"/>
  </linearGradient>
  <linearGradient id="a">
   <stop stop-color="#57534a" stop-opacity=".69" offset="0"/>
   <stop stop-color="#feca79" stop-opacity="0" offset="1"/>
  </linearGradient>
  <radialGradient id="s" cx="376.07" cy="438.08" r="38.864" gradientTransform="matrix(1 0 0 1.0075 12.081 -287.29)" gradientUnits="userSpaceOnUse">
   <stop stop-color="#646464" offset="0"/>
   <stop stop-color="#fff" offset=".37062"/>
   <stop stop-color="#b1b1b1" offset=".61044"/>
   <stop stop-color="#8a8a8a" offset=".80526"/>
   <stop stop-color="#646464" offset="1"/>
  </radialGradient>
 </defs>
 <path d="m425.95 168.77c-20.083 22.556-73.875-33.761-55.641-53.14s36.171-39.05 55.072-57.783c7.2429-7.1784 13.737-15.272 22.199-21.068 11.487-7.8679 28.044-8.6956 39.514-0.46429 8.6119 6.1802 15.543 15.627 16.761 26.326 1.8539 16.292-7.7136 27.175-17.654 38.462-19.961 22.664-40.167 45.112-60.25 67.668z" fill="#feca79"/>
 <path d="m425.95 168.77c-20.083 22.556-73.875-33.761-55.641-53.14s36.171-39.05 55.072-57.783c7.2429-7.1784 13.737-15.272 22.199-21.068 11.487-7.8678 28.044-8.6956 39.514-0.46429 8.6119 6.1802 15.543 15.627 16.761 26.326 1.854 16.292-7.7136 27.175-17.654 38.462-19.961 22.664-40.167 45.112-60.25 67.668z" fill="url(#k)" opacity=".636"/>
 <path d="m425.95 168.77c-20.083 22.556-73.875-33.761-55.641-53.14s36.171-39.05 55.072-57.783c7.2429-7.1784 13.737-15.272 22.199-21.068 11.487-7.8678 28.044-8.6956 39.514-0.46429 8.6119 6.1802 15.543 15.627 16.761 26.326 1.854 16.292-7.7136 27.175-17.654 38.462-19.961 22.664-40.167 45.112-60.25 67.668z" fill="url(#l)" opacity=".636"/>
 <path d="m369.9 115.63c18.234-19.379 36.171-39.05 55.072-57.783 7.2429-7.1784 13.737-15.272 22.199-21.068 11.487-7.8679 28.044-8.6956 39.514-0.46429 8.6119 6.1802 15.543 15.627 16.761 26.326 1.8539 16.292-7.7136 27.175-17.654 38.462-19.961 22.664-40.167 45.112-60.25 67.668" fill="none" stroke="#000"/>
 <path d="m341.21 132.89c-0.49368-5.5198 1.0637-10.935 5.6376-14.167 10.148-5.6413 21.158-1.2708 30.29 4.118 7.2653 4.3311 14.055 9.373 20.565 14.78 11.862 10.196 22.271 22.198 25.368 37.825 0.97421 5.7497 2.6483 12.653-1.4113 17.703-14.499 13.058-38.221-8.5298-49.174-17.181-7.8671-6.3175-15.191-13.405-21.945-20.897-5.7808-6.0334-8.2674-14.056-9.3294-22.181z" fill="#f4c57b"/>
 <path d="m341.21 132.89c-0.49368-5.5198 1.0191-11.002 5.593-14.234 10.148-5.6413 21.202-1.2038 30.334 4.185 7.2653 4.3311 14.055 9.373 20.565 14.78 11.862 10.196 22.271 22.198 25.368 37.825 0.89624 5.7497 1.8037 12.832-1.5898 17.882-14.499 12.475-38.042-8.7094-48.996-17.36-7.8671-6.3175-15.191-13.405-21.945-20.897-5.7807-6.0334-8.2674-14.056-9.3294-22.181z" fill="url(#m)" opacity=".6"/>
 <path d="m341.21 132.89c-0.49368-5.5198 0.97446-10.957 5.5483-14.189 10.148-5.6413 21.247-1.2485 30.379 4.1404 7.2653 4.3311 14.055 9.373 20.565 14.78 11.862 10.196 22.271 22.198 25.368 37.825 0.89624 5.7497 2.2055 12.966-1.188 18.016-14.499 12.475-38.444-8.8433-49.397-17.494-7.8671-6.3175-15.191-13.405-21.945-20.897-5.7807-6.0334-8.2674-14.056-9.3294-22.181z" fill="url(#n)" opacity=".5"/>
 <path d="m425.95 168.77c-20.083 22.556-73.875-33.761-55.641-53.14 18.234-19.38 36.171-39.05 55.072-57.783 7.2429-7.1784 13.737-15.272 22.199-21.068 11.487-7.8678 28.044-8.6956 39.514-0.46429 8.6119 6.1802 15.543 15.627 16.761 26.326 1.8539 16.292-7.7136 27.175-17.654 38.462-19.961 22.664-40.167 45.112-60.25 67.668z" fill="url(#o)"/>
 <path d="m349.29 117.83c8.4334-4.1682 19.176-3.7714 27.412 0.61356 14.144 7.5308 26.784 17.796 37.496 29.557 6.244 6.8551 11.297 16.575 12.559 26.271 0.83075 6.3799-0.22147 13.709-4.6108 18.782v0.17859l0.5357-1.875 0.9821-2.5893 0.8036-4.1964-0.8036-8.8393-1.6964-6.3393-1.9643-3.9286-2.6786-5.5357-4.375-6.6071-3.3929-4.0179-7.5-7.8571-9.4643-7.9464-7.2321-5.1786-8.75-5.5357-5.9821-3.0357-6.25-2.0536-5.2679-1.4286-4.1964 0.0893-5.625 1.4732z" fill="#feca79"/>
 <path d="m349.29 117.83c8.4334-4.1682 19.176-3.7714 27.412 0.61356 14.144 7.5308 26.784 17.796 37.496 29.557 6.244 6.8551 11.297 16.575 12.559 26.271 0.83075 6.3799-0.22147 13.709-4.6108 18.782v0.17859l0.5357-1.875 0.9821-2.5893 0.8036-4.1964-0.8036-8.8393-1.6964-6.3393-1.9643-3.9286-2.6786-5.5357-4.375-6.6071-3.3929-4.0179-7.5-7.8571-9.4643-7.9464-7.2321-5.1786-8.75-5.5357-5.9821-3.0357-6.25-2.0536-5.2679-1.4286-4.1964 0.0893-5.625 1.4732z" fill="url(#s)" opacity=".2"/>
 <path d="m341.71 133.39c-0.49368-5.5198 0.72891-11.27 5.3028-14.502 10.148-5.6413 21.493-0.93597 30.624 4.4528 7.2653 4.3311 14.055 9.373 20.565 14.78 11.862 10.196 22.271 22.198 25.368 37.825 0.89624 5.7497 2.3263 13.161-1.9916 17.39-13.574 13.295-37.64-8.2183-48.594-16.868-7.8671-6.3175-15.191-13.405-21.945-20.897-5.7808-6.0334-8.2674-14.056-9.3294-22.181z" fill="none" stroke="#000"/>
 <path d="m363.93 140.2c-1.9643 0.71429-129.56 134.67-186.43 208.57-12.474 16.211-23.151 33.756-33.75 51.25-0.31755 0.52417-0.7921 1.0026-0.89285 1.6072-0.10074 0.60449-0.38605 1.4192-0.35715 2.1428 0.0392 0.9809 0.035706 2.1478 0.71429 2.8572l3.9286 4.1071 1.9643 1.6071 6.25 4.2858c0.68727 0.47125 1.7761 0.40918 2.5 0 17.096-9.6637 32.707-22.942 47.857-35.536 71.466-63.969 198.04-208.75 198.04-208.75l1.25-3.75-0.8929-6.9643-4.6429-8.2143-5.7143-6.6071-10.714-7.3214-9.1071-3.3929-6.6071 1.0714-3.3929 3.0357z" fill="url(#p)" opacity=".4"/>
 <path d="m363.93 140.2c-1.9643 0.71429-129.56 134.67-186.43 208.57-12.474 16.211-23.151 33.756-33.75 51.25-0.31757 0.52417-0.7921 1.0026-0.89285 1.6072-0.10075 0.60449-0.38605 1.4192-0.35715 2.1428 0.0392 0.9809 0.035706 2.1478 0.71429 2.8572l3.9286 4.1071 1.9643 1.6071 6.25 4.2858c0.68727 0.47125 1.7761 0.40918 2.5 0 17.096-9.6637 32.707-22.942 47.857-35.536 71.466-63.969 198.04-208.75 198.04-208.75l1.25-3.75-0.8929-6.9643-4.6429-8.2143-5.7143-6.6071-10.714-7.3214-9.1071-3.3929-6.6071 1.0714-3.3929 3.0357z" fill="url(#q)" opacity=".3"/>
 <path d="m363.93 140.2c-1.9643 0.71429-129.56 134.67-186.43 208.57-12.474 16.211-23.151 33.756-33.75 51.25-0.31757 0.52417-0.7921 1.0026-0.89285 1.6072-0.10075 0.60449-0.38605 1.4192-0.35715 2.1428 0.0392 0.9809 0.035706 2.1478 0.71429 2.8572l3.9286 4.1071 1.9643 1.6071 6.25 4.2858c0.68727 0.47125 1.7761 0.40918 2.5 0 17.096-9.6637 32.707-22.942 47.857-35.536 71.466-63.969 198.04-208.75 198.04-208.75 3.0653-6.9124 0.061401-13.281-3.8857-18.929-1.6681-2.3867-3.9418-4.6684-6.1143-6.6072-8.5718-7.2522-19.514-14.642-29.821-6.6071z" fill="none" stroke="#000"/>
 <path d="m425.95 168.77c-20.083 22.556-73.875-33.761-55.641-53.14s36.171-39.05 55.072-57.783c7.2429-7.1784 13.737-15.272 22.199-21.068 11.487-7.8678 28.044-8.6956 39.514-0.46429 8.6119 6.1802 15.543 15.627 16.761 26.326 1.8539 16.292-7.7136 27.175-17.654 38.462-19.961 22.664-40.167 45.112-60.25 67.668z" fill="url(#r)" opacity=".3"/>
 <path d="m349.29 117.83c8.4334-4.1682 19.176-3.7714 27.412 0.61356 14.144 7.5308 26.784 17.796 37.496 29.557 6.244 6.8551 11.297 16.575 12.559 26.271 0.83075 6.3799-0.62326 13.798-5.0125 18.871" fill="none" stroke="#000"/>
 <path d="m145 399.88l22.763-34.824 36.041-47.059 33.196 31.059-34.144 32.941-43.629 32-14.227-14.118z" fill="#ff007f" opacity=".75" stroke="#ff007f" stroke-width="5"/>
</svg>
