<?xml version="1.0" encoding="UTF-8" standalone="no"?>
<!-- Created with Inkscape (http://www.inkscape.org/) -->

<svg
   xmlns:dc="http://purl.org/dc/elements/1.1/"
   xmlns:cc="http://creativecommons.org/ns#"
   xmlns:rdf="http://www.w3.org/1999/02/22-rdf-syntax-ns#"
   xmlns:svg="http://www.w3.org/2000/svg"
   xmlns="http://www.w3.org/2000/svg"
   xmlns:sodipodi="http://sodipodi.sourceforge.net/DTD/sodipodi-0.dtd"
   xmlns:inkscape="http://www.inkscape.org/namespaces/inkscape"
   width="744.09448819"
   height="1052.3622047"
   id="svg2"
   version="1.1"
   inkscape:version="0.48.4 r9939"
   sodipodi:docname="New document 1">
  <defs
     id="defs4" />
  <sodipodi:namedview
     id="base"
     pagecolor="#ffffff"
     bordercolor="#666666"
     borderopacity="1.0"
     inkscape:pageopacity="0.0"
     inkscape:pageshadow="2"
     inkscape:zoom="0.35"
     inkscape:cx="375"
     inkscape:cy="520"
     inkscape:document-units="px"
     inkscape:current-layer="layer1"
     showgrid="false"
     inkscape:window-width="1301"
     inkscape:window-height="744"
     inkscape:window-x="65"
     inkscape:window-y="24"
     inkscape:window-maximized="1" />
  <metadata
     id="metadata7">
    <rdf:RDF>
      <cc:Work
         rdf:about="">
        <dc:format>image/svg+xml</dc:format>
        <dc:type
           rdf:resource="http://purl.org/dc/dcmitype/StillImage" />
        <dc:title></dc:title>
      </cc:Work>
    </rdf:RDF>
  </metadata>
  <g
     inkscape:label="Layer 1"
     inkscape:groupmode="layer"
     id="layer1">
    <g
       id="g3227"
       transform="matrix(0.93364042,0,0,0.93364042,-715.88655,291.84789)">
      <path
         sodipodi:nodetypes="ccc"
         inkscape:connector-curvature="0"
         id="path3155"
         d="m 810.24994,332.24737 c 3.99366,126.92255 104.46542,99.55999 53.86798,0 48.60648,-143.68767 -128.11174,-239.31606 -53.86798,0 z"
         style="fill:#ffccaa;fill-opacity:1;stroke:#ffccaa;stroke-width:1.66601086" />
      <path
         style="fill:#ffccaa;fill-opacity:1;stroke:#ffccaa;stroke-width:1.66601086"
         d="m 1456.6657,332.24737 c -3.9936,126.92255 -104.4654,99.55999 -53.8679,0 -48.6065,-143.68767 128.1117,-239.31606 53.8679,0 z"
         id="path3153"
         inkscape:connector-curvature="0"
         sodipodi:nodetypes="ccc" />
      <path
         sodipodi:nodetypes="sssss"
         inkscape:connector-curvature="0"
         id="path4055"
         d="m 1402.7978,332.24737 c -53.868,215.47193 -107.1999,430.94386 -269.3399,430.94386 -150.83796,0 -215.472,-215.47193 -269.33998,-430.94386 -53.86798,-215.47193 -0.45572,-431.090275 269.33998,-430.943855 262.585,0.14221 323.2078,215.471925 269.3399,430.943855 z"
         style="fill:#ffb380;fill-opacity:1;stroke:none" />
      <path
         sodipodi:nodetypes="ccc"
         inkscape:connector-curvature="0"
         id="rect3111"
         d="m 985.34911,510.29409 c 74.57479,6.60206 216.34579,-9.78523 294.71809,-25.65754 -92.8823,180.97197 -265.0445,60.41596 -294.71809,25.65754 z"
         style="fill:#d35f5f;fill-opacity:1" />
      <path
         sodipodi:nodetypes="ccccc"
         inkscape:connector-curvature="0"
         id="rect3114"
         d="m 1012.2147,509.07344 c 11.3311,3.74178 154.307,-8.23351 234.6458,-16.81996 l -33.1629,39.72818 -174.8267,7.92613 z"
         style="fill:#f4d7d7;fill-opacity:1" />
      <path
         sodipodi:nodetypes="cccccccc"
         inkscape:connector-curvature="0"
         id="path3120"
         d="m 910.78699,178.79484 c 69.11725,-18.44214 114.63901,-11.15121 155.17811,1.57445 17.0445,10.26045 37.329,18.35024 44.2084,35.42272 0,22.00852 0,35.77362 0,51.95298 -6.1577,14.82759 -23.7382,26.3325 -44.2084,36.99685 -35.8165,6.88853 -71.60593,8.06706 -107.36155,2.36168 -29.14161,-9.13073 -38.10234,-22.17507 -46.01253,-35.4225 -5.75557,-29.96332 -16.57593,-58.94332 -1.80403,-92.88618 z"
         style="fill:none;stroke:#000000;stroke-width:9.53432369px;stroke-linecap:butt;stroke-linejoin:miter;stroke-opacity:1" />
      <path
         style="fill:none;stroke:#000000;stroke-width:9.53432369px;stroke-linecap:butt;stroke-linejoin:miter;stroke-opacity:1"
         d="m 1358.9589,178.79484 c -69.1177,-18.44214 -114.6392,-11.15121 -155.1786,1.57445 -17.044,10.26045 -37.3285,18.35024 -44.2079,35.42272 0,22.00852 0,35.77362 0,51.95298 6.1572,14.82759 23.7378,26.3325 44.2079,36.99685 35.8167,6.88853 71.6058,8.06706 107.362,2.36168 29.1412,-9.13073 38.1022,-22.17507 46.0121,-35.4225 5.7554,-29.96332 16.5763,-58.94332 1.8045,-92.88618 z"
         id="path3122"
         inkscape:connector-curvature="0"
         sodipodi:nodetypes="cccccccc" />
      <rect
         y="219.72731"
         x="1109.2672"
         height="10.233182"
         width="50.523174"
         id="rect3124"
         style="fill:#000000;fill-opacity:1" />
      <path
         transform="matrix(1.525,0,0,1,-309.75,0)"
         d="m 595,299.86218 c 0,1.38071 -1.11929,2.5 -2.5,2.5 -1.38071,0 -2.5,-1.11929 -2.5,-2.5 0,-1.38071 1.11929,-2.5 2.5,-2.5 1.38071,0 2.5,1.11929 2.5,2.5 z"
         sodipodi:ry="2.5"
         sodipodi:rx="2.5"
         sodipodi:cy="299.86218"
         sodipodi:cx="592.5"
         id="path3163"
         style="opacity:0.01000001;fill:#808080;fill-opacity:1"
         sodipodi:type="arc" />
      <path
         sodipodi:nodetypes="cccccccccscccscccccccc"
         inkscape:connector-curvature="0"
         id="path3211"
         d="m 851.55612,176.60177 116.83729,-135.33061 117.57699,-81.8552 88.2753,-54.706805 49.5761,8.22844 114.3344,63.781085 32.3208,32.3207904 24.8136,142.2116896 2.096,151.51384 c 0,0 -18.6715,80.48673 -8.6577,89.26258 10.014,8.77574 127.0978,-108.72961 127.0978,-108.72961 l 16.6987,-223.088329 -60.9463,-115.042506 c 0,0 -10.7536,-62.251235 -30.658,-70.890045 -19.9044,-8.63892 -209.0582,-95.16501 -209.0582,-95.16501 l -129.0705,-33.87154 -147.24877,82.26546 -87.90533,81.444715 -67.26107,143.559036 1.72615,124.776139 40.79519,88.57846 z"
         style="fill:#ab604b;fill-opacity:1;stroke:#ab604b;stroke-width:9.3897438px;stroke-linecap:butt;stroke-linejoin:miter;stroke-opacity:1" />
      <path
         inkscape:connector-curvature="0"
         id="path3225"
         d="m 1085.2029,379.68309 0,24.04914 42.0861,12.02463 60.1229,-18.03694 0,0"
         style="fill:none;stroke:#000000;stroke-width:6.01229429px;stroke-linecap:butt;stroke-linejoin:miter;stroke-opacity:1" />
    </g>
  </g>
</svg>
