<?xml version="1.0" encoding="UTF-8"?>
<!DOCTYPE svg PUBLIC "-//W3C//DTD SVG 1.1//EN" "http://www.w3.org/Graphics/SVG/1.1/DTD/svg11.dtd">
<svg version="1.2" viewBox="1096 6021 24638 8150" preserveAspectRatio="xMidYMid" fill-rule="evenodd" stroke-width="28.222" stroke-linejoin="round" xmlns="http://www.w3.org/2000/svg" xmlns:ooo="http://xml.openoffice.org/svg/export" xmlns:xlink="http://www.w3.org/1999/xlink" xmlns:presentation="http://sun.com/xmlns/staroffice/presentation" xmlns:smil="http://www.w3.org/2001/SMIL20/" xmlns:anim="urn:oasis:names:tc:opendocument:xmlns:animation:1.0" xml:space="preserve">
 <defs class="EmbeddedBulletChars">
  <g id="bullet-char-template-57356" transform="scale(0.00048828125,-0.00048828125)">
   <path d="M 580,1141 L 1163,571 580,0 -4,571 580,1141 Z"/>
  </g>
  <g id="bullet-char-template-57354" transform="scale(0.00048828125,-0.00048828125)">
   <path d="M 8,1128 L 1137,1128 1137,0 8,0 8,1128 Z"/>
  </g>
  <g id="bullet-char-template-10146" transform="scale(0.00048828125,-0.00048828125)">
   <path d="M 174,0 L 602,739 174,1481 1456,739 174,0 Z M 1358,739 L 309,1346 659,739 1358,739 Z"/>
  </g>
  <g id="bullet-char-template-10132" transform="scale(0.00048828125,-0.00048828125)">
   <path d="M 2015,739 L 1276,0 717,0 1260,543 174,543 174,936 1260,936 717,1481 1274,1481 2015,739 Z"/>
  </g>
  <g id="bullet-char-template-10007" transform="scale(0.00048828125,-0.00048828125)">
   <path d="M 0,-2 C -7,14 -16,27 -25,37 L 356,567 C 262,823 215,952 215,954 215,979 228,992 255,992 264,992 276,990 289,987 310,991 331,999 354,1012 L 381,999 492,748 772,1049 836,1024 860,1049 C 881,1039 901,1025 922,1006 886,937 835,863 770,784 769,783 710,716 594,584 L 774,223 C 774,196 753,168 711,139 L 727,119 C 717,90 699,76 672,76 641,76 570,178 457,381 L 164,-76 C 142,-110 111,-127 72,-127 30,-127 9,-110 8,-76 1,-67 -2,-52 -2,-32 -2,-23 -1,-13 0,-2 Z"/>
  </g>
  <g id="bullet-char-template-10004" transform="scale(0.00048828125,-0.00048828125)">
   <path d="M 285,-33 C 182,-33 111,30 74,156 52,228 41,333 41,471 41,549 55,616 82,672 116,743 169,778 240,778 293,778 328,747 346,684 L 369,508 C 377,444 397,411 428,410 L 1163,1116 C 1174,1127 1196,1133 1229,1133 1271,1133 1292,1118 1292,1087 L 1292,965 C 1292,929 1282,901 1262,881 L 442,47 C 390,-6 338,-33 285,-33 Z"/>
  </g>
  <g id="bullet-char-template-9679" transform="scale(0.00048828125,-0.00048828125)">
   <path d="M 813,0 C 632,0 489,54 383,161 276,268 223,411 223,592 223,773 276,916 383,1023 489,1130 632,1184 813,1184 992,1184 1136,1130 1245,1023 1353,916 1407,772 1407,592 1407,412 1353,268 1245,161 1136,54 992,0 813,0 Z"/>
  </g>
  <g id="bullet-char-template-8226" transform="scale(0.00048828125,-0.00048828125)">
   <path d="M 346,457 C 273,457 209,483 155,535 101,586 74,649 74,723 74,796 101,859 155,911 209,963 273,989 346,989 419,989 480,963 531,910 582,859 608,796 608,723 608,648 583,586 532,535 482,483 420,457 346,457 Z"/>
  </g>
  <g id="bullet-char-template-8211" transform="scale(0.00048828125,-0.00048828125)">
   <path d="M -4,459 L 1135,459 1135,606 -4,606 -4,459 Z"/>
  </g>
  <g id="bullet-char-template-61548" transform="scale(0.00048828125,-0.00048828125)">
   <path d="M 173,740 C 173,903 231,1043 346,1159 462,1274 601,1332 765,1332 928,1332 1067,1274 1183,1159 1299,1043 1357,903 1357,740 1357,577 1299,437 1183,322 1067,206 928,148 765,148 601,148 462,206 346,322 231,437 173,577 173,740 Z"/>
  </g>
 </defs>
 <g ooo:name="page14" class="Page">
  <g class="Group">
   <g class="com.sun.star.drawing.CustomShape">
    <g id="id3">
     <rect class="BoundingBox" stroke="none" fill="none" x="1096" y="6503" width="3232" height="4237"/>
     <path fill="rgb(255,255,255)" stroke="none" d="M 2712,10698 L 1137,10698 1137,6544 4286,6544 4286,10698 2712,10698 Z"/>
     <path fill="none" stroke="rgb(0,0,0)" stroke-width="81" stroke-linejoin="round" d="M 2712,10698 L 1137,10698 1137,6544 4286,6544 4286,10698 2712,10698 Z"/>
    </g>
   </g>
   <g class="com.sun.star.drawing.LineShape">
    <g id="id4">
     <rect class="BoundingBox" stroke="none" fill="none" x="1521" y="7112" width="1988" height="83"/>
     <path fill="none" stroke="rgb(0,0,0)" stroke-width="81" stroke-linejoin="round" d="M 1562,7153 L 3467,7153"/>
    </g>
   </g>
   <g class="com.sun.star.drawing.LineShape">
    <g id="id5">
     <rect class="BoundingBox" stroke="none" fill="none" x="1494" y="7720" width="2200" height="83"/>
     <path fill="none" stroke="rgb(0,0,0)" stroke-width="81" stroke-linejoin="round" d="M 1535,7761 L 3652,7761"/>
    </g>
   </g>
   <g class="com.sun.star.drawing.LineShape">
    <g id="id6">
     <rect class="BoundingBox" stroke="none" fill="none" x="1521" y="8276" width="1723" height="83"/>
     <path fill="none" stroke="rgb(0,0,0)" stroke-width="81" stroke-linejoin="round" d="M 1562,8317 L 3202,8317"/>
    </g>
   </g>
   <g class="com.sun.star.drawing.LineShape">
    <g id="id7">
     <rect class="BoundingBox" stroke="none" fill="none" x="1494" y="8805" width="877" height="83"/>
     <path fill="none" stroke="rgb(0,0,0)" stroke-width="81" stroke-linejoin="round" d="M 1535,8846 L 2329,8846"/>
    </g>
   </g>
   <g class="com.sun.star.drawing.LineShape">
    <g id="id8">
     <rect class="BoundingBox" stroke="none" fill="none" x="1494" y="9281" width="1962" height="83"/>
     <path fill="none" stroke="rgb(0,0,0)" stroke-width="81" stroke-linejoin="round" d="M 1535,9322 L 3414,9322"/>
    </g>
   </g>
   <g class="com.sun.star.drawing.LineShape">
    <g id="id9">
     <rect class="BoundingBox" stroke="none" fill="none" x="1574" y="9969" width="1644" height="83"/>
     <path fill="none" stroke="rgb(0,0,0)" stroke-width="81" stroke-linejoin="round" d="M 1615,10010 L 3176,10010"/>
    </g>
   </g>
  </g>
  <g class="Group">
   <g class="com.sun.star.drawing.CustomShape">
    <g id="id10">
     <rect class="BoundingBox" stroke="none" fill="none" x="6970" y="9908" width="3232" height="4237"/>
     <path fill="rgb(255,255,255)" stroke="none" d="M 8586,14103 L 7011,14103 7011,9949 10160,9949 10160,14103 8586,14103 Z"/>
     <path fill="none" stroke="rgb(0,0,0)" stroke-width="81" stroke-linejoin="round" d="M 8586,14103 L 7011,14103 7011,9949 10160,9949 10160,14103 8586,14103 Z"/>
    </g>
   </g>
   <g class="com.sun.star.drawing.LineShape">
    <g id="id11">
     <rect class="BoundingBox" stroke="none" fill="none" x="7395" y="10517" width="1988" height="83"/>
     <path fill="none" stroke="rgb(0,0,0)" stroke-width="81" stroke-linejoin="round" d="M 7436,10558 L 9341,10558"/>
    </g>
   </g>
   <g class="com.sun.star.drawing.LineShape">
    <g id="id12">
     <rect class="BoundingBox" stroke="none" fill="none" x="7368" y="11125" width="2200" height="83"/>
     <path fill="none" stroke="rgb(0,0,0)" stroke-width="81" stroke-linejoin="round" d="M 7409,11166 L 9526,11166"/>
    </g>
   </g>
   <g class="com.sun.star.drawing.LineShape">
    <g id="id13">
     <rect class="BoundingBox" stroke="none" fill="none" x="7395" y="11681" width="1723" height="83"/>
     <path fill="none" stroke="rgb(0,0,0)" stroke-width="81" stroke-linejoin="round" d="M 7436,11722 L 9076,11722"/>
    </g>
   </g>
   <g class="com.sun.star.drawing.LineShape">
    <g id="id14">
     <rect class="BoundingBox" stroke="none" fill="none" x="7368" y="12210" width="877" height="83"/>
     <path fill="none" stroke="rgb(0,0,0)" stroke-width="81" stroke-linejoin="round" d="M 7409,12251 L 8203,12251"/>
    </g>
   </g>
   <g class="com.sun.star.drawing.LineShape">
    <g id="id15">
     <rect class="BoundingBox" stroke="none" fill="none" x="7368" y="12686" width="1962" height="83"/>
     <path fill="none" stroke="rgb(0,0,0)" stroke-width="81" stroke-linejoin="round" d="M 7409,12727 L 9288,12727"/>
    </g>
   </g>
   <g class="com.sun.star.drawing.LineShape">
    <g id="id16">
     <rect class="BoundingBox" stroke="none" fill="none" x="7448" y="13374" width="1644" height="83"/>
     <path fill="none" stroke="rgb(0,0,0)" stroke-width="81" stroke-linejoin="round" d="M 7489,13415 L 9050,13415"/>
    </g>
   </g>
  </g>
  <g class="Group">
   <g class="com.sun.star.drawing.CustomShape">
    <g id="id17">
     <rect class="BoundingBox" stroke="none" fill="none" x="22502" y="9934" width="3232" height="4237"/>
     <path fill="rgb(255,255,255)" stroke="none" d="M 24118,14129 L 22543,14129 22543,9975 25692,9975 25692,14129 24118,14129 Z"/>
     <path fill="none" stroke="rgb(0,0,0)" stroke-width="81" stroke-linejoin="round" d="M 24118,14129 L 22543,14129 22543,9975 25692,9975 25692,14129 24118,14129 Z"/>
    </g>
   </g>
   <g class="com.sun.star.drawing.LineShape">
    <g id="id18">
     <rect class="BoundingBox" stroke="none" fill="none" x="22927" y="10543" width="1988" height="83"/>
     <path fill="none" stroke="rgb(0,0,0)" stroke-width="81" stroke-linejoin="round" d="M 22968,10584 L 24873,10584"/>
    </g>
   </g>
   <g class="com.sun.star.drawing.LineShape">
    <g id="id19">
     <rect class="BoundingBox" stroke="none" fill="none" x="22900" y="11151" width="2200" height="83"/>
     <path fill="none" stroke="rgb(0,0,0)" stroke-width="81" stroke-linejoin="round" d="M 22941,11192 L 25058,11192"/>
    </g>
   </g>
   <g class="com.sun.star.drawing.LineShape">
    <g id="id20">
     <rect class="BoundingBox" stroke="none" fill="none" x="22927" y="11707" width="1723" height="83"/>
     <path fill="none" stroke="rgb(0,0,0)" stroke-width="81" stroke-linejoin="round" d="M 22968,11748 L 24608,11748"/>
    </g>
   </g>
   <g class="com.sun.star.drawing.LineShape">
    <g id="id21">
     <rect class="BoundingBox" stroke="none" fill="none" x="22900" y="12236" width="877" height="83"/>
     <path fill="none" stroke="rgb(0,0,0)" stroke-width="81" stroke-linejoin="round" d="M 22941,12277 L 23735,12277"/>
    </g>
   </g>
   <g class="com.sun.star.drawing.LineShape">
    <g id="id22">
     <rect class="BoundingBox" stroke="none" fill="none" x="22900" y="12712" width="1962" height="83"/>
     <path fill="none" stroke="rgb(0,0,0)" stroke-width="81" stroke-linejoin="round" d="M 22941,12753 L 24820,12753"/>
    </g>
   </g>
   <g class="com.sun.star.drawing.LineShape">
    <g id="id23">
     <rect class="BoundingBox" stroke="none" fill="none" x="22980" y="13400" width="1644" height="83"/>
     <path fill="none" stroke="rgb(0,0,0)" stroke-width="81" stroke-linejoin="round" d="M 23021,13441 L 24582,13441"/>
    </g>
   </g>
  </g>
  <g class="Group">
   <g class="com.sun.star.drawing.CustomShape">
    <g id="id24">
     <rect class="BoundingBox" stroke="none" fill="none" x="13241" y="6021" width="3232" height="4237"/>
     <path fill="rgb(255,255,255)" stroke="none" d="M 14857,10216 L 13282,10216 13282,6062 16431,6062 16431,10216 14857,10216 Z"/>
     <path fill="none" stroke="rgb(0,0,0)" stroke-width="81" stroke-linejoin="round" d="M 14857,10216 L 13282,10216 13282,6062 16431,6062 16431,10216 14857,10216 Z"/>
    </g>
   </g>
   <g class="com.sun.star.drawing.LineShape">
    <g id="id25">
     <rect class="BoundingBox" stroke="none" fill="none" x="13666" y="6630" width="1988" height="83"/>
     <path fill="none" stroke="rgb(0,0,0)" stroke-width="81" stroke-linejoin="round" d="M 13707,6671 L 15612,6671"/>
    </g>
   </g>
   <g class="com.sun.star.drawing.LineShape">
    <g id="id26">
     <rect class="BoundingBox" stroke="none" fill="none" x="13639" y="7238" width="2200" height="83"/>
     <path fill="none" stroke="rgb(0,0,0)" stroke-width="81" stroke-linejoin="round" d="M 13680,7279 L 15797,7279"/>
    </g>
   </g>
   <g class="com.sun.star.drawing.LineShape">
    <g id="id27">
     <rect class="BoundingBox" stroke="none" fill="none" x="13666" y="7794" width="1723" height="83"/>
     <path fill="none" stroke="rgb(0,0,0)" stroke-width="81" stroke-linejoin="round" d="M 13707,7835 L 15347,7835"/>
    </g>
   </g>
   <g class="com.sun.star.drawing.LineShape">
    <g id="id28">
     <rect class="BoundingBox" stroke="none" fill="none" x="13639" y="8323" width="877" height="83"/>
     <path fill="none" stroke="rgb(0,0,0)" stroke-width="81" stroke-linejoin="round" d="M 13680,8364 L 14474,8364"/>
    </g>
   </g>
   <g class="com.sun.star.drawing.LineShape">
    <g id="id29">
     <rect class="BoundingBox" stroke="none" fill="none" x="13639" y="8799" width="1962" height="83"/>
     <path fill="none" stroke="rgb(0,0,0)" stroke-width="81" stroke-linejoin="round" d="M 13680,8840 L 15559,8840"/>
    </g>
   </g>
   <g class="com.sun.star.drawing.LineShape">
    <g id="id30">
     <rect class="BoundingBox" stroke="none" fill="none" x="13719" y="9487" width="1644" height="83"/>
     <path fill="none" stroke="rgb(0,0,0)" stroke-width="81" stroke-linejoin="round" d="M 13760,9528 L 15321,9528"/>
    </g>
   </g>
  </g>
  <g class="com.sun.star.drawing.CustomShape">
   <g id="id31">
    <rect class="BoundingBox" stroke="none" fill="none" x="2224" y="9137" width="1059" height="477"/>
    <path fill="rgb(0,0,255)" stroke="none" d="M 2753,9613 L 2224,9613 2224,9137 3282,9137 3282,9613 2753,9613 Z"/>
   </g>
  </g>
  <g class="com.sun.star.drawing.LineShape">
   <g id="id32">
    <rect class="BoundingBox" stroke="none" fill="none" x="3213" y="9432" width="3641" height="2264"/>
    <path fill="none" stroke="rgb(0,0,255)" stroke-width="81" stroke-linejoin="round" d="M 3254,9473 L 6489,11471"/>
    <path fill="rgb(0,0,255)" stroke="none" d="M 6425,11581 L 6386,11596 6852,11695 6555,11323 6558,11363 6554,11406 6543,11449 6524,11490 6496,11527 6463,11557 6425,11581 Z"/>
   </g>
  </g>
  <g class="com.sun.star.drawing.CustomShape">
   <g id="id33">
    <rect class="BoundingBox" stroke="none" fill="none" x="1642" y="7470" width="1059" height="477"/>
    <path fill="rgb(255,0,0)" stroke="none" d="M 2171,7946 L 1642,7946 1642,7470 2700,7470 2700,7946 2171,7946 Z"/>
   </g>
  </g>
  <g class="com.sun.star.drawing.LineShape">
   <g id="id34">
    <rect class="BoundingBox" stroke="none" fill="none" x="2631" y="7359" width="10599" height="329"/>
    <path fill="none" stroke="rgb(255,0,0)" stroke-width="81" stroke-linejoin="round" d="M 2672,7646 L 12802,7519"/>
    <path fill="rgb(255,0,0)" stroke="none" d="M 12807,7646 L 12783,7680 13229,7514 12779,7359 12803,7391 12823,7430 12836,7471 12842,7517 12839,7563 12826,7606 12807,7646 Z"/>
   </g>
  </g>
  <g class="com.sun.star.drawing.CustomShape">
   <g id="id35">
    <rect class="BoundingBox" stroke="none" fill="none" x="13972" y="7543" width="1059" height="477"/>
    <path fill="rgb(0,169,51)" stroke="none" d="M 14501,8019 L 13972,8019 13972,7543 15030,7543 15030,8019 14501,8019 Z"/>
   </g>
  </g>
  <g class="com.sun.star.drawing.CustomShape">
   <g id="id36">
    <rect class="BoundingBox" stroke="none" fill="none" x="14607" y="8602" width="1059" height="477"/>
    <path fill="rgb(255,0,0)" stroke="none" d="M 15136,9078 L 14607,9078 14607,8602 15665,8602 15665,9078 15136,9078 Z"/>
   </g>
  </g>
  <g class="com.sun.star.drawing.LineShape">
   <g id="id37">
    <rect class="BoundingBox" stroke="none" fill="none" x="10241" y="7870" width="3771" height="1948"/>
    <path fill="none" stroke="rgb(21,132,102)" stroke-width="81" stroke-linejoin="round" d="M 13970,7911 L 10621,9622"/>
    <path fill="rgb(21,132,102)" stroke="none" d="M 10560,9510 L 10567,9469 10241,9816 10713,9755 10677,9737 10642,9711 10612,9680 10587,9642 10569,9599 10561,9555 10560,9510 Z"/>
   </g>
  </g>
  <g class="com.sun.star.drawing.LineShape">
   <g id="id38">
    <rect class="BoundingBox" stroke="none" fill="none" x="15517" y="8849" width="6816" height="1659"/>
    <path fill="none" stroke="rgb(255,0,0)" stroke-width="81" stroke-linejoin="round" d="M 15558,8890 L 21915,10355"/>
    <path fill="rgb(255,0,0)" stroke="none" d="M 21890,10480 L 21858,10507 22331,10451 21930,10194 21946,10231 21956,10273 21960,10317 21954,10362 21940,10406 21918,10445 21890,10480 Z"/>
   </g>
  </g>
  <g class="com.sun.star.drawing.CustomShape">
   <g id="id39">
    <rect class="BoundingBox" stroke="none" fill="none" x="8045" y="11007" width="1059" height="477"/>
    <path fill="rgb(128,0,128)" stroke="none" d="M 8574,11483 L 8045,11483 8045,11007 9103,11007 9103,11483 8574,11483 Z"/>
   </g>
  </g>
  <g class="com.sun.star.drawing.CustomShape">
   <g id="id40">
    <rect class="BoundingBox" stroke="none" fill="none" x="23497" y="12462" width="1059" height="477"/>
    <path fill="rgb(255,128,0)" stroke="none" d="M 24026,12938 L 23497,12938 23497,12462 24555,12462 24555,12938 24026,12938 Z"/>
   </g>
  </g>
  <g class="com.sun.star.drawing.LineShape">
   <g id="id41">
    <rect class="BoundingBox" stroke="none" fill="none" x="9034" y="11083" width="13324" height="323"/>
    <path fill="none" stroke="rgb(128,0,128)" stroke-width="81" stroke-linejoin="round" d="M 9075,11364 L 21930,11244"/>
    <path fill="rgb(128,0,128)" stroke="none" d="M 21935,11371 L 21910,11405 22357,11240 21907,11084 21932,11116 21951,11154 21965,11196 21970,11242 21967,11287 21954,11331 21935,11371 Z"/>
   </g>
  </g>
  <g class="com.sun.star.drawing.LineShape">
   <g id="id42">
    <rect class="BoundingBox" stroke="none" fill="none" x="10292" y="12503" width="13113" height="323"/>
    <path fill="none" stroke="rgb(255,128,0)" stroke-width="81" stroke-linejoin="round" d="M 23363,12606 L 10719,12664"/>
    <path fill="rgb(255,128,0)" stroke="none" d="M 10715,12537 L 10740,12503 10292,12666 10741,12824 10717,12792 10697,12754 10684,12712 10679,12666 10683,12620 10695,12577 10715,12537 Z"/>
   </g>
  </g>
 </g>
</svg>