<?xml version="1.0" encoding="UTF-8" standalone="no"?>
<svg
   width="108.71065mm"
   height="158.76184mm"
   version="1.1"
   viewBox="0 0 385.19521 562.54196"
   id="svg572"
   sodipodi:docname="heart2.svg"
   inkscape:version="1.2.2 (732a01da63, 2022-12-09, custom)"
   xmlns:inkscape="http://www.inkscape.org/namespaces/inkscape"
   xmlns:sodipodi="http://sodipodi.sourceforge.net/DTD/sodipodi-0.dtd"
   xmlns="http://www.w3.org/2000/svg"
   xmlns:svg="http://www.w3.org/2000/svg">
  <defs
     id="defs576" />
  <sodipodi:namedview
     id="namedview574"
     pagecolor="#ffffff"
     bordercolor="#000000"
     borderopacity="0.25"
     inkscape:showpageshadow="2"
     inkscape:pageopacity="0.0"
     inkscape:pagecheckerboard="0"
     inkscape:deskcolor="#d1d1d1"
     inkscape:document-units="mm"
     showgrid="false"
     inkscape:zoom="0.77949635"
     inkscape:cx="193.71483"
     inkscape:cy="336.75591"
     inkscape:window-width="1846"
     inkscape:window-height="1016"
     inkscape:window-x="1994"
     inkscape:window-y="27"
     inkscape:window-maximized="1"
     inkscape:current-layer="svg572" />
  <path
     d="m 69.568306,539.85984 c -3.3959,-0.7535 -7.0339,-5.7666 -7.727,-10.648 -1.0367,-7.3014 -3.1693,-58.383 -3.125,-81.498 0.0339,-17.651 0.37943,-22.936 1.8452,-28.224 4.8156,-17.371 13.744,-24.366 27.216,-21.325 9.6121,2.1701 25.073004,11.681 38.934004,23.951 l 4.3973,3.8925 -1.1652,18.681 c -2.4703,39.606 -6.6073,64.702 -9.7825,78.838 -1.2612,5.615 -2.181,7.3607 -5.4199,10.287 -2.1455,1.9383 -5.6377,4.0484 -7.7604,4.689 -3.9404,1.1893 -33.358004,2.2548 -37.413004,1.3551 z"
     fill="#0293e1"
     fill-rule="evenodd"
     stroke="#000000"
     stroke-linecap="round"
     stroke-width="3.384"
     id="path542" />
  <path
     d="m 233.64831,210.09984 c -25.155,-16.198 -41.362,-27.753 -71.234,-50.789 l -38.67,-29.821 -10.496,0.016 c -23.190004,0.035 -51.386004,1.8921 -58.249004,3.8369 l -6.8735,1.9476 -4.3625,-3.0232 c -6.5817,-4.5611 -10.353,-10.702 -10.944,-17.819 -0.2745,-3.3106 -0.065,-6.0225 0.4663,-6.0266 3.8324,-0.029 26.441,-4.5867 27.372,-5.5179 1.9723,-1.9723 -0.6605,-4.662903 -9.3869,-9.592903 -10.623,-6.0016 -10.943,-6.3287 -10.943,-11.183 0,-5.507 3.0635,-10.906 8.3555,-14.724 l 4.3503,-3.1392 34.25,11.082 c 77.665004,25.129003 104.740004,32.272003 140.320004,37.010003 17.385,2.3158 48.719,2.6201 63.529,0.6169 25.672,-3.4725 40.632,-10.16 63.99,-21.767003 16.921,-8.4086 18.304,-8.4823 24.35,-1.2978 2.4979,2.9686 2.9836,4.5986 2.9836,10.013 v 6.466903 l -8.5626,4.66 c -8.6244,4.6936 -13.534,8.3475 -13.534,10.072 0,0.5135 5.2204,3.3775 11.601,6.3645 10.721,5.0189 11.599,5.6667 11.577,8.5412 -0.0581,7.4472 -11.949,21.848 -21.159,26.552 -3.5043,1.7901 -0.87894,-35.162 -9.7227,-30.757 -20.915,10.419 -64.161,11.093 -78.052,39.974 -5.9234,12.315 -8.1582,24.102 -8.2526,43.526 -0.0421,8.6584 -0.0896,15.743 -0.10551,15.744 -0.0159,9e-4 -14.683,-9.4341 -32.593,-20.967 z"
     fill="#0293e1"
     fill-rule="evenodd"
     stroke="#000000"
     stroke-linecap="round"
     stroke-width="3.3146"
     id="path544" />
  <path
     d="m 57.768306,201.40984 c 1.6877,-37.576 3.021,-40.527 5.866,-69.227 l 2.3,-23.202 5.7046,-5.8564 c 14.154,-14.531003 30.434004,-16.852003 54.170004,-7.722903 l 8.6905,3.3424 -1.5932,59.935003 z"
     fill="none"
     stroke="#000000"
     stroke-linecap="round"
     stroke-width="3.315"
     id="path546" />
  <path
     d="m 60.188306,194.42984 c 0,-5.53 2.1661,-30.239 5.0146,-57.202 l 2.8673,-27.141 5.4029,-5.4871 c 3.1318,-3.1805 8.1556,-6.845603 11.951,-8.719003 6.0203,-2.9713 7.3234,-3.2272 16.162004,-3.1733 8.2342,0.0502 11.064,0.55769 19.716,3.5355 l 10.102,3.4769 0.3412,5.555803 c 0.18766,3.0557 0.0258,16.039 -0.35962,28.852 l -0.70082,23.296 -34.491004,19.564 c -18.97,10.76 -34.832,19.737 -35.248,19.948 -0.41669,0.21111 -0.75761,-0.91584 -0.75761,-2.5043 z"
     fill="#0293e1"
     fill-rule="evenodd"
     stroke="#000000"
     stroke-linecap="round"
     stroke-width="3.384"
     id="path548" />
  <path
     d="m 73.188306,173.27984 c 17.637,-5.9659 29.619004,-16.959 37.891004,-31.25 5.8587,-11.277 15.116,-16.436 26.172,-18.359 l 27.734,-3.5156 c 13.303,0.4667 17.682,7.1798 20.703,14.844 l 16.406,38.281 c 20.256,33.807 43.483,42.851 66.797,51.172 104.67,130.98 67.87,196.75 43.75,268.36 -13.218,19.776 13.778,9.3927 -51.172,67.969 -61.629,-8.0372 -119.15,-28.673 -165.230004,-84.375 -32.423,-47.886 -74.422,-53.639 -94.1409999,-157.42 -4.132,-70.099 21.9219999,-116.84 71.0939999,-145.7 z"
     fill="none"
     stroke="#000000"
     stroke-width="3.35"
     id="path550" />
  <path
     d="m 256.66831,558.10984 c -10.024,-1.3956 -35.855,-6.985 -46.324,-10.024 -47.296,-13.728 -87.975,-41.023 -115.630004,-77.588 -4.2246,-5.5847 -14.969,-17.671 -23.877,-26.859 -27.538,-28.404 -34.861,-37.765 -44.804,-57.269 -11.119,-21.812 -20.9979999,-55.388 -22.0729999,-75.023 -1.8026,-32.921 7.1191999,-68.244 23.4969999,-93.028 12.008,-18.171 35.67,-38.706 52.207,-45.308 7.2172,-2.8811 18.154,-10.469 23.299004,-16.165 2.1307,-2.359 6.2784,-7.9951 9.2171,-12.525 9.8192,-15.135 14.021,-17.248 40.606,-20.416 14.617,-1.7421 15.466,-1.7435 19.946,-0.0327 2.6962,1.0297 5.6835,3.1397 7.0501,4.9796 1.3043,1.756 6.509,12.838 11.566,24.626 10.106,23.556 11.273,25.682 20.203,36.782 6.3255,7.8631 13.242,14.229 21.737,20.006 5.7477,3.9088 23.483,12.412 29.822,14.298 4.0393,1.2017 5.3337,2.5485 15.152,15.766 46.03,61.964 63.99,113.81 57.211,165.16 -1.6101,12.197 -5.1155,27.744 -9.119,40.442 -5.1396,16.302 -14.966,43.891 -17.235,48.39 -1.2997,2.5768 -2.8259,7.5588 -3.3916,11.071 -0.73011,4.5336 -2.1114,8.0091 -4.7624,11.982 -3.5898,5.3803 -39.192,41.616 -40.584,41.306 -0.37302,-0.0832 -2.0419,-0.34122 -3.7087,-0.57327 z"
     fill="#dd1b02"
     fill-rule="evenodd"
     stroke="#000000"
     stroke-linecap="round"
     stroke-width="3.384"
     id="path552" />
  <path
     d="m 260.94831,114.15984 c -19.2,-53.603003 -46.052,81.139 -46.052,81.139 -5.5395,0.79135 -35.532,-73.314 -46.472,-72.337 -5.4894,0.4904 -24.959,1.2669 -25.042,1.1722 -0.0823,-0.0947 0.44427,-11.126 2.1808,-16.34 5.8624,-17.599003 8.7615,-28.432003 27.187,-48.557003 3.4281,-3.5872 5.1044,-7.1158 5.1044,-10.745 0,-2.9448 -4.7002,-11.765 -12.266,-23.019 -3.2541,-4.84 -5.9165,-9.4645 -5.9165,-10.277 0,-2.3425 5.1501,-7.837 8.7592,-9.345 1.8137,-0.75783 4.8896,-1.3779 6.8353,-1.3779 3.5304,0 3.5424,0.0157 5.8884,7.7306 2.6235,8.6272 4.3607,10.084 9.4664,7.9369 2.3495,-0.98791 3.8579,-2.9716 6.4332,-8.4605 3.0224,-6.4418 3.8064,-7.3389 7.7192,-8.8332 4.0171,-1.5341 4.5489,-1.5363 6.8507,-0.0281 2.5798,1.6903 5.0572,8.1998 3.8613,10.146 -0.37347,0.60772 -3.5384,4.8119 -7.0332,9.3426 -5.6558,7.3323 -6.3542,8.7416 -6.3542,12.823 0,3.3998 0.63309,5.3183 2.4486,7.4197 2.4186,2.7996 2.5761,2.8313 12.868,2.5913 9.4571,-0.22056 10.586,-0.45378 12.229,-2.5254 3.8314,-4.8327 7.3471,-11.606 10.85,-20.903 4.2119,-11.178 6.0746,-12.732 15.142,-12.634 5.7192,0.0615 9.5433,1.5828 14.316,5.6954 l 2.6995,2.326 -1.9731,13.132 c -1.8359,12.219 -1.8605,13.429 -0.35437,17.396 2.3976,6.3154 6.5992,10.384 10.718,10.38 5.5057,-0.006 9.3964,-3.2971 16.705,-14.13 l 6.8806,-10.198 5.8027,0.45301 c 6.9746,0.5445 11.808,3.141 13.481,7.2427 1.1631,2.8505 0.82551,3.7587 -5.8102,15.629 -3.8748,6.9317 -7.5466,14.478 -8.1595,16.77 2.2265,19.737 21.295,17.081 24.177,29.524003 -14.225,6.7619 -49.724,16.793 -73.173,10.862 z"
     fill="#dd1b02"
     fill-rule="evenodd"
     stroke="#000000"
     stroke-linecap="round"
     stroke-width="3.384"
     id="path554" />
  <path
     d="m 287.20831,183.01984 c -2.0921,-0.51929 -5.5021,-1.8106 -7.5778,-2.8696 l -3.7741,-1.9254 -3.9553,-23.088 64.568,-17.644 v 22.617 l -3.8703,3.1414 c -9.4652,7.6827 -21.808,15.911 -26.601,17.733 -6.5087,2.4744 -13.826,3.2669 -18.789,2.035 z"
     fill="#dd1b02"
     fill-rule="evenodd"
     stroke="#000000"
     stroke-linecap="round"
     stroke-width="3.384"
     id="path556" />
  <path
     d="m 231.03831,287.79984 c 13.749,13.06 29.971,17.875 32.857,67.143 1.8011,19.172 -3.2401,36.063 -12.857,51.429 17.269,36.866 22.251,80.755 12.857,132.86 -32.652,-28.963 -55.411,-65.347 -72.857,-105.71 -2.4696,-21.473 -1.5488,-41.251 18.571,-51.429 -25.511,-7.2446 -21.421,-29.29 -25.714,-47.143 8.5531,-30.037 27.346,-39.594 47.143,-47.143 z"
     fill="#fc5f54"
     fill-rule="evenodd"
     stroke="#000000"
     stroke-width="1px"
     id="path558" />
  <path
     d="m 73.898306,192.07984 c -61.45,32.472 -57.32,78.06 -64.2859999,121.43 44.2829999,-46.501 71.2839999,-55.56 92.8570039,-52.857 39.348,-26.208 49.084,-43.956 62.857,-62.857 -19.032,-12.777 -2.8112,-59.044 -91.429004,-5.7143 z"
     fill="#fc5f54"
     fill-rule="evenodd"
     stroke="#000000"
     stroke-width="1px"
     id="path560" />
  <path
     d="m 189.96831,151.36984 c 6.8034,11.738 15.516,22.63 12.143,37.143 -2.6086,19.961 -14.358,29.892 -24.643,41.429 -10.948,5.3571 -19.366,10.714 -27.5,16.071 -9.1216,3.1564 -17.9,7.6838 -26.071,14.643 l -22.857,6.0714 -19.286004,9.2857 -16.071,7.5 6.4286,2.8572 19.643,-12.143 1.0714,4.6429 15.000004,-9.2857 8.9286,-2.8571 -32.143004,37.5 c -5.1353,4.7619 -10.231,9.5238 -10.714,14.286 -7.3178,1.8438 -10.581,10.606 -15.357,16.786 l -21.786,18.929 c 5.6354,-2.4082 12.947,-7.6102 13.214,-1.0714 l -2.5,7.5 -2.8571,11.786 v 5 l -3.2143,12.5 4.2857,-5 2.1429,-6.4286 c -0.51914,-4.603 4.0975,-2.8869 8.2143,-1.7857 l -3.5714,-7.8571 4.6429,-20.714 c 5.2035,-11.416 10.766,-20.495 17.857,-19.643 3.0673,8.943 2.1052,19.972 -2.5,28.929 -12.376,27.494 -13.258,41.852 -19.643,62.5 -5.0645,11.036 0.61492,12.522 3.5714,16.429 0.42501,2.8916 2.3274,1.3511 4.6429,-1.4286 -2.875,-14.83 1.6371,-25.967 8.2143,-36.071 0.74965,-3.5969 0.10993,-9 10,-0.71429 l 47.500004,55 c 7.0766,14.09 15.779,27.145 33.214,34.643 6.9023,4.0574 13.336,9.9902 19.286,17.857 l 12.857,22.143 c 6.8232,11.892 10.213,13.047 15,18.571 -9.1277,-12.183 -10.367,-17.195 1.4286,-10.357 l -11.071,-9.2857 -11.071,-17.857 c 0.0756,-2.7426 -3.8386,-10.273 5,-2.5 14.07,7.6031 22.129,19.5 29.643,31.786 36.103,29.154 27.343,17.403 33.929,19.643 -12.799,-7.8673 -25.436,-15.961 -33.571,-30.357 l -27.5,-29.643 c -8.6905,-7.9338 -17.381,-10.135 -26.071,-13.571 -14.113,-10.284 -26.233,-25.217 -37.5,-42.143 l 9.6428,2.1429 21.429,12.857 -2.8571,-6.0714 c -4.9615,-2.7661 -10.764,-6.6536 -18.571,-13.214 -21.371,-1.3074 -31.188,-19.419 -42.500004,-35.357 l -13.571,-21.786 c -6.5392,-62.725 14.039,-84.775 37.500004,-102.5 20.911,-15.867 43.904,-38.577 58.571,-33.929 0.40617,5.2013 -0.0879,11.078 3.9286,13.571 -0.59752,4.4093 -0.68575,7.8001 -2.1428,13.929 l -6.4286,5.7143 c -3.8897,4.7702 -2.4581,7.4118 -1.7857,10.357 2.2964,-3.4267 4.4627,-7.9116 7.1429,-8.2143 0.5013,8.4681 3.4313,16.62 12.857,23.929 -3.3133,-6.779 -6.2899,-13.446 -6.7857,-19.286 0.43379,-7.6533 0.91669,-15.405 3.2143,-26.786 -4.2075,-5.3571 -1.9465,-10.714 0.35715,-16.071 1.8742,-3.1227 4.3171,-7.9512 7.1428,-13.929 11.209,-20.733 22.83,-41.282 25.714,-65.714 -4.0307,5.0678 -7.7207,11.498 -13.571,9.2857 -7.2163,-3.6781 -12.353,-12.708 -19.643,-19.643 z"
     fill="#c97901"
     fill-rule="evenodd"
     stroke="#000000"
     stroke-width="3.35"
     id="path562" />
  <path
     d="m 265.67831,213.50984 9.2857,53.214 c 16.006,26.223 33.804,26.246 41.071,29.286 9.7331,1.8364 12.38,6.8391 10.357,13.929 -7.5145,-4.3757 -15.83,-7.1495 -24.286,-9.6429 -6.0719,4.2413 -1.6078,12.002 0.35714,18.929 l 8.9286,40.714 5.3571,36.786 4.2857,22.143 5,26.429 -9.2857,-27.143 c -8.3659,37.987 8.1574,74.453 -36.786,117.5 7.2949,-15.927 17.398,-26.389 23.929,-53.214 l -20,16.786 2.8571,-8.9286 -2.5,-7.8571 c 7.5776,6.2989 12.778,-1.6645 18.571,-6.0714 4.2704,-19.413 10.316,-37.84 6.4286,-61.786 1.9711,-42.968 -4.7358,-45.439 -7.8571,-64.643 l -3.9286,15.357 c -0.45588,3.945 0.15177,7.7128 5.3572,10.714 l 0.71428,13.214 c -3.9738,-8.036 -8.3476,-18.005 -6.7857,0.71429 -2.7278,6.8709 -5.4169,13.839 -10,16.071 5.3083,-16.729 7.3819,-28.804 5,-37.857 l 1.7857,-23.571 c 0.81924,-9.172 3.2176,-17.752 -3.2143,-29.643 -5,-12.323 -10,-27.841 -15,-43.929 z"
     fill="#c97901"
     fill-rule="evenodd"
     stroke="#000000"
     stroke-width="3.35"
     id="path564" />
  <path
     d="m 213.26831,171.85984 c -5.0229,14.326 -8.6339,31.1 -18.105,48.025 0,0 -16.745,17.635 -16.745,19.655 -25.638,2.2377 -43.947,22.798 -64.65,37.376 -36.962004,28.978 -38.187004,67.486 -35.355004,107.08 23.811004,45.36 45.754004,54.061 64.650004,81.822 13.326,9.7965 15.925,21.977 40.406,29.294 -19.257,-2.5372 -28.725,-18.777 -41.921,-29.8 -19.916,-32.618 -48.085004,-45.403 -58.589004,-80.307 -19.853,-73.479 27.638004,-116.41 95.459004,-147.48 l 17.678,-17.173 z"
     fill="#700902"
     fill-rule="evenodd"
     stroke="#c00602"
     stroke-width="1px"
     id="path566" />
  <path
     d="m 216.29831,170.34984 c -5.0229,14.326 -9.6441,31.1 -19.115,48.025 0,0 -16.745,17.635 -16.745,19.655 -25.638,2.2377 -43.947,22.798 -64.65,37.376 -36.962004,28.978 -38.187004,67.486 -35.355004,107.08 23.811004,45.36 45.754004,54.061 64.650004,81.822 13.326,9.7965 15.925,21.977 40.406,29.294 -19.257,-2.5372 -28.725,-18.777 -41.921,-29.8 -19.916,-32.618 -48.085004,-45.403 -58.589004,-80.307 -19.853,-73.479 27.638004,-116.41 95.459004,-147.48 l 17.678,-17.173 z"
     fill="#225d6a"
     fill-rule="evenodd"
     stroke="#156295"
     stroke-width="0.2"
     id="path568" />
  <path
     d="m 286.50831,286.51984 c 9.6288,12.964 11.953,25.927 13.637,38.891 8.1509,30.641 11.273,61.283 14.142,91.924 -3.4849,81.083 -8.2696,68.418 -19.193,95.964 14.048,-18.682 16.902,-52.606 17.173,-97.985 0.44088,-25.269 0.73232,-49.578 -13.132,-87.883 z"
     fill="#235d6b"
     fill-rule="evenodd"
     stroke="#c21d02"
     stroke-width="1px"
     id="path570" />
</svg>
