<?xml version="1.0" encoding="UTF-8" standalone="no"?>
<svg
   width="113.8"
   height="102.4"
   viewBox="0 0 569.00002 512.00001"
   version="1.1"
   id="svg1"
   sodipodi:docname="react-logo.svg"
   inkscape:version="1.4 (e7c3feb100, 2024-10-09)"
   xmlns:inkscape="http://www.inkscape.org/namespaces/inkscape"
   xmlns:sodipodi="http://sodipodi.sourceforge.net/DTD/sodipodi-0.dtd"
   xmlns="http://www.w3.org/2000/svg"
   xmlns:svg="http://www.w3.org/2000/svg"
   xmlns:rdf="http://www.w3.org/1999/02/22-rdf-syntax-ns#"
   xmlns:cc="http://creativecommons.org/ns#"
   xmlns:dc="http://purl.org/dc/elements/1.1/">
  <defs
     id="defs1" />
  <sodipodi:namedview
     id="namedview1"
     pagecolor="#505050"
     bordercolor="#eeeeee"
     borderopacity="1"
     inkscape:showpageshadow="0"
     inkscape:pageopacity="0"
     inkscape:pagecheckerboard="0"
     inkscape:deskcolor="#505050"
     inkscape:zoom="1.6367188"
     inkscape:cx="284.4105"
     inkscape:cy="256"
     inkscape:window-width="1920"
     inkscape:window-height="1043"
     inkscape:window-x="0"
     inkscape:window-y="0"
     inkscape:window-maximized="1"
     inkscape:current-layer="svg1" />
  <title
     id="title1">React-Logo-Filled (1)</title>
  <g
     id="Page-1"
     stroke="none"
     stroke-width="1"
     fill="none"
     fill-rule="evenodd">
    <g
       id="React-Logo-Filled-(1)"
       fill="#087ea4"
       fill-rule="nonzero">
      <path
         d="m 285.5,201 c -30.09952,0 -54.5,24.40048 -54.5,54.5 0,30.09952 24.40048,54.5 54.5,54.5 30.09952,0 54.5,-24.40048 54.5,-54.5 0,-30.09952 -24.40048,-54.5 -54.5,-54.5"
         id="Path" />
      <path
         d="m 568.95986,255.99437 c 0,-42.78671 -39.62206,-80.31293 -102.70824,-105.00916 0.84303,-5.56167 1.60576,-11.0631 2.1477,-16.46415 C 474.62163,73.041515 459.80852,28.66862 426.70986,9.5541429 389.67708,-11.829175 337.36955,3.691299 284.47993,46.016213 231.59031,3.691299 179.28277,-11.829175 142.25,9.5541429 109.15133,28.66862 94.338225,73.041515 100.56053,134.52106 c 0.54195,5.40105 1.28461,10.92256 2.1477,16.50431 -5.258851,2.00782 -10.417345,4.13612 -15.37512,6.3648 C 31.011182,182.70882 0,217.76541 0,255.99437 c 0,42.78671 39.622054,80.31293 102.70823,105.00916 -0.86309,5.56167 -1.60575,11.0631 -2.1477,16.46415 -6.222305,61.47955 8.5908,105.85244 41.68947,124.96692 11.37968,6.45298 24.27439,9.75217 37.35392,9.55724 31.35241,0 67.96367,-16.50431 104.87601,-46.01931 36.89227,29.515 73.5236,46.01931 104.91615,46.01931 13.07918,0.19202 25.97314,-3.10698 37.35392,-9.55724 33.09867,-19.11448 47.91177,-63.48737 41.68947,-124.96692 -0.54195,-5.40105 -1.30468,-10.90248 -2.1477,-16.46415 C 529.37795,336.34746 569,298.76101 569,255.99437 M 389.15521,27.102518 c 8.40994,-0.202912 16.72263,1.834332 24.08636,5.903001 22.9824,13.271711 33.29938,49.271982 28.28139,98.764821 -0.34122,3.37315 -0.74266,6.78645 -1.22438,10.21982 -26.23166,-7.90212 -53.09281,-13.53801 -80.28786,-16.84563 -16.4857,-21.92047 -34.8182,-42.388083 -54.79645,-61.178377 31.37247,-24.254505 60.81804,-36.863635 83.92087,-36.863635 M 378.3565,310.2056 c -10.15159,17.62513 -21.20587,34.71436 -33.11874,51.19949 -20.19271,2.07491 -40.47894,3.10696 -60.7779,3.09221 -20.29227,0.0141 -40.57179,-1.01799 -60.75784,-3.09221 -11.88111,-16.48571 -22.90195,-33.57503 -33.01837,-51.19949 -10.15106,-17.57632 -19.37668,-35.67141 -27.6391,-54.21123 8.26242,-18.53982 17.48804,-36.63492 27.6391,-54.21123 10.10047,-17.55377 21.08735,-34.58205 32.91801,-51.01879 20.22298,-2.12626 40.5439,-3.18518 60.87827,-3.17247 20.29222,-0.0122 40.57163,1.01989 60.75783,3.09216 11.87129,16.46203 22.89833,33.51707 33.03845,51.0991 10.14321,17.58058 19.36862,35.67526 27.63909,54.21123 -8.27047,18.53597 -17.49588,36.63065 -27.63909,54.21123 m 41.4486,-20.07823 c 6.37035,17.37617 11.60018,35.14971 15.65613,53.20731 -17.60131,5.48896 -35.54415,9.81509 -53.71257,12.95046 6.90476,-10.41391 13.59541,-21.24946 20.07196,-32.50666 6.40296,-11.12334 12.40448,-22.34707 18.06477,-33.5708 m -173.44183,100.1703 c 12.48476,0.76297 25.23046,1.20469 38.13673,1.20469 12.90627,0 25.73226,-0.44172 38.23709,-1.20469 -11.85645,14.20544 -24.62943,27.61958 -38.23709,40.15647 -13.57836,-12.5349 -26.31808,-25.94933 -38.13673,-40.15647 z m -59.05171,-34.13299 c -18.17427,-3.12134 -36.12383,-7.43407 -53.73265,-12.91031 4.03964,-18.02903 9.24931,-35.77562 15.59592,-53.127 5.58,11.22373 11.56145,22.44746 18.06476,33.5708 6.50332,11.12334 13.22743,22.08606 20.07197,32.50666 M 149.17483,221.76098 c -6.32388,-17.28704 -11.52004,-34.96624 -15.55577,-52.92622 17.56512,-5.48238 35.46659,-9.82166 53.59214,-12.99061 -6.86462,10.38044 -13.58872,21.14237 -20.07197,32.36611 -6.48324,11.22373 -12.40447,22.30691 -18.06476,33.55072 m 173.54219,-100.1703 c -12.48476,-0.76297 -25.23046,-1.20469 -38.23709,-1.20469 -12.89958,0 -25.61183,0.40156 -38.13673,1.20469 11.81865,-14.20714 24.55837,-27.621566 38.13673,-40.156464 13.61284,12.531612 26.38616,25.946104 38.23709,40.156464 z m 79.08353,66.61958 c -6.50332,-11.27058 -13.22742,-22.11283 -20.17232,-32.52674 18.21635,3.13553 36.20635,7.46843 53.85307,12.97054 -4.04898,18.02661 -9.25847,35.7726 -15.59591,53.127 -5.58001,-11.22373 -11.58152,-22.44746 -18.06477,-33.55073 M 127.51718,131.79042 c -5.07821,-49.472762 5.299,-85.493111 28.26132,-98.764823 7.3662,-4.06235 15.67715,-6.099169 24.08636,-5.903001 23.10283,0 52.5484,12.60913 83.92087,36.863636 -19.9916,18.803641 -38.33743,39.284578 -54.8366,61.218528 -27.18744,3.32327 -54.04558,8.93837 -80.28785,16.7854 -0.46165,-3.43337 -0.88316,-6.82659 -1.20432,-10.19974 m -29.003983,50.31605 c 3.091083,-1.33855 6.242383,-2.67709 9.453893,-4.01564 6.31366,26.64484 14.87492,52.70607 25.59175,77.90354 -10.73709,25.24695 -19.30532,51.36269 -25.61182,78.06417 -51.143361,-20.98175 -80.78965,-50.05503 -80.78965,-78.06417 0,-26.54342 26.093551,-53.46833 71.355827,-73.8879 z M 155.7785,478.96314 c -22.96232,-13.27171 -33.33953,-49.29206 -28.26132,-98.76482 0.32115,-3.37315 0.74266,-6.76637 1.20432,-10.21982 26.23219,7.90002 53.09315,13.53586 80.28785,16.84563 16.49094,21.92859 34.82297,42.4091 54.79646,61.21853 -43.73681,33.79167 -83.70009,44.93509 -107.96709,30.92048 m 285.66417,-98.76482 c 5.01799,49.49284 -5.299,85.49311 -28.28139,98.76482 -24.24693,14.05477 -64.23028,2.87119 -107.94702,-30.92048 19.96688,-18.80992 38.2922,-39.29045 54.77639,-61.21853 27.19505,-3.30762 54.0562,-8.94351 80.28785,-16.84563 0.48173,3.45345 0.88316,6.84667 1.22439,10.21982 m 19.63038,-46.17994 c -6.32432,-26.68586 -14.899,-52.78733 -25.6319,-78.02401 10.72821,-25.25029 19.29619,-51.36527 25.61183,-78.06417 51.043,20.98175 80.76957,50.05504 80.76957,78.06417 0,28.00914 -29.64629,57.08242 -80.78965,78.06417"
         id="Shape" />
    </g>
  </g>
  <metadata
     id="metadata1">
    <rdf:RDF>
      <cc:Work
         rdf:about="">
        <dc:title>React-Logo-Filled (1)</dc:title>
      </cc:Work>
    </rdf:RDF>
  </metadata>
</svg>
